<svg width="20" height="21" viewBox="0 0 20 21" fill="none" xmlns="http://www.w3.org/2000/svg">
<path fill-rule="evenodd" clip-rule="evenodd" d="M1.875 10.9646C1.875 6.47877 5.5142 2.83957 10 2.83957C14.4858 2.83957 18.125 6.47877 18.125 10.9646C18.125 15.4504 14.4858 19.0896 10 19.0896C5.5142 19.0896 1.875 15.4504 1.875 10.9646ZM10 4.08957C6.20455 4.08957 3.125 7.16912 3.125 10.9646C3.125 14.76 6.20455 17.8396 10 17.8396C13.7954 17.8396 16.875 14.76 16.875 10.9646C16.875 7.16912 13.7954 4.08957 10 4.08957Z" fill="white"/>
<path fill-rule="evenodd" clip-rule="evenodd" d="M14.915 12.2904C14.915 12.6356 14.6352 12.9154 14.29 12.9154L8.98667 12.9154C8.6415 12.9154 8.36167 12.6356 8.36167 12.2904L8.36167 6.98709C8.36167 6.64192 8.6415 6.36209 8.98667 6.36209C9.33185 6.36209 9.61167 6.64192 9.61167 6.98709L9.61167 11.6654L14.29 11.6654C14.6352 11.6654 14.915 11.9452 14.915 12.2904Z" fill="white"/>
</svg>
