<svg width="20" height="20" viewBox="0 0 20 20" fill="none" xmlns="http://www.w3.org/2000/svg">
<path d="M19 6.96458V0.964579M19 0.964579H13M19 0.964579L10 9.96457M8 0.964569H5.8C4.11984 0.964569 3.27976 0.964569 2.63803 1.29155C2.07354 1.57917 1.6146 2.03811 1.32698 2.6026C1 3.24433 1 4.08441 1 5.76457V14.1646C1 15.8448 1 16.6848 1.32698 17.3266C1.6146 17.8911 2.07354 18.35 2.63803 18.6376C3.27976 18.9646 4.11984 18.9646 5.8 18.9646H14.2C15.8802 18.9646 16.7202 18.9646 17.362 18.6376C17.9265 18.35 18.3854 17.8911 18.673 17.3266C19 16.6848 19 15.8448 19 14.1646V11.9646" stroke="white" stroke-width="1.7" stroke-linecap="round" stroke-linejoin="round"/>
</svg>
