<svg width="200" height="66" viewBox="0 0 200 66" fill="none" xmlns="http://www.w3.org/2000/svg">
<path d="M21.4009 49.2685V45.9438C21.4009 45.5966 21.2148 45.2761 20.9133 45.104L15.0749 41.7722C14.7734 41.6001 14.5872 41.2796 14.5872 40.9324V31.0952C14.5872 30.3493 15.3962 29.8843 16.0408 30.2597L28.6401 37.5977C28.9409 37.7729 29.3126 37.7729 29.6134 37.5977L42.2108 30.2598C42.8554 29.8844 43.6644 30.3494 43.6644 31.0953V40.9342C43.6644 41.2814 43.4782 41.602 43.1766 41.774L37.3366 45.1059C37.035 45.2779 36.8488 45.5985 36.8488 45.9457V49.2673C36.8488 50.0082 37.648 50.4738 38.2926 50.1084L48.0139 44.5972C48.3171 44.4253 48.5044 44.1035 48.504 43.755L48.4801 22.7133C48.4792 21.9679 47.671 21.5037 47.0268 21.8787L29.6113 32.0156C29.3106 32.1906 28.9391 32.1906 28.6384 32.0156L11.2265 21.8787C10.5824 21.5038 9.77412 21.9678 9.77316 22.7131L9.74585 43.7513C9.7454 44.0998 9.9325 44.4216 10.2356 44.5936L19.9568 50.1094C20.6014 50.4752 21.4009 50.0096 21.4009 49.2685Z" fill="url(#paint0_linear_30_728)"/>
<path fill-rule="evenodd" clip-rule="evenodd" d="M26.8287 0.646304C28.3292 -0.218822 30.1778 -0.215193 31.6748 0.655815L55.8531 14.7232C57.341 15.5889 58.2563 17.1804 58.2563 18.9019V46.8317C58.2563 48.5415 57.3533 50.1241 55.8813 50.9939L31.6841 65.2922C30.193 66.1733 28.3445 66.1895 26.8383 65.3346L2.44819 51.4915C0.934981 50.6327 0 49.027 0 47.287V18.9082C0 17.18 0.922521 15.5832 2.41971 14.72L26.8287 0.646304ZM29.2436 4.83455L4.83455 18.9082V47.287L29.2246 61.13L53.4218 46.8317V18.9019L29.2436 4.83455Z" fill="url(#paint1_linear_30_728)"/>
<path d="M80.7603 22.5884C81.5315 22.5884 82.2806 22.7206 83.0076 22.985C83.7567 23.2494 84.4728 23.635 85.1558 24.1417C85.266 24.2519 85.3871 24.3621 85.5193 24.4722C85.6295 24.3621 85.7507 24.2519 85.8829 24.1417C86.5659 23.635 87.2709 23.2494 87.998 22.985C88.7471 22.7206 89.4962 22.5884 90.2453 22.5884C91.0164 22.5884 91.7655 22.7206 92.4926 22.985C93.2417 23.2494 93.9467 23.646 94.6077 24.1748C95.2907 24.6815 95.8856 25.3645 96.3924 26.2238C96.9211 27.0831 97.1855 28.1076 97.1855 29.2973V41.2279C97.0533 42.5499 96.3263 43.2659 95.0043 43.3761C94.3874 43.3761 93.8476 43.1778 93.3849 42.7812C92.9443 42.3626 92.7239 41.8448 92.7239 41.2279V29.5617C92.7239 29.0329 92.6248 28.5923 92.4265 28.2398C92.2282 27.8652 92.0079 27.5788 91.7655 27.3805C91.5232 27.1602 91.2698 27.0059 91.0054 26.9178C90.741 26.8077 90.4766 26.7526 90.2122 26.7526C89.9479 26.7526 89.6835 26.8077 89.4191 26.9178C89.1767 27.0059 88.9344 27.1602 88.692 27.3805C88.4497 27.5788 88.2293 27.8652 88.031 28.2398C87.8327 28.5923 87.7226 29.0329 87.7005 29.5617V41.2279C87.5684 42.5499 86.8413 43.2659 85.5193 43.3761C84.9024 43.3761 84.3626 43.1778 83.8999 42.7812C83.4593 42.3626 83.239 41.8448 83.239 41.2279V29.5617C83.239 29.0329 83.1398 28.5923 82.9415 28.2398C82.7432 27.8652 82.5229 27.5788 82.2806 27.3805C82.0382 27.1602 81.7848 27.0059 81.5204 26.9178C81.2561 26.8077 80.9917 26.7526 80.7273 26.7526C80.4629 26.7526 80.1985 26.8077 79.9341 26.9178C79.6917 27.0059 79.4494 27.1602 79.207 27.3805C78.9647 27.5788 78.7444 27.8652 78.5461 28.2398C78.3478 28.5923 78.2376 29.0329 78.2156 29.5617V41.2279C78.1054 42.5499 77.3894 43.2659 76.0674 43.3761C75.4505 43.3761 74.9107 43.1778 74.448 42.7812C74.0074 42.3626 73.787 41.8448 73.787 41.2279V29.2973C73.8311 28.1076 74.1065 27.0831 74.6133 26.2238C75.12 25.3645 75.7149 24.6815 76.3979 24.1748C77.0809 23.646 77.7859 23.2494 78.513 22.985C79.2621 22.7206 80.0112 22.5884 80.7603 22.5884Z" fill="white"/>
<path d="M107.497 23.4808H109.017H120.254C120.87 23.5028 121.377 23.7341 121.774 24.1748C122.192 24.6154 122.402 25.1442 122.402 25.7611C122.292 27.0831 121.575 27.7991 120.254 27.9093H108.62C107.783 27.9533 107.089 28.2728 106.538 28.8677C105.987 29.4626 105.58 30.1456 105.315 30.9167C105.073 31.6658 104.952 32.437 104.952 33.2301C104.952 34.0233 105.073 34.8054 105.315 35.5766C105.58 36.3257 105.987 36.9977 106.538 37.5925C107.089 38.1874 107.783 38.5069 108.62 38.551H120.254C120.87 38.573 121.377 38.8043 121.774 39.245C122.192 39.6856 122.402 40.2144 122.402 40.8313C122.38 41.4262 122.159 41.9329 121.741 42.3516C121.344 42.7481 120.848 42.9575 120.254 42.9795H108.125H107.497C105.954 42.8914 104.677 42.3075 103.663 41.2279C102.672 40.1263 101.956 38.8814 101.515 37.4934C101.096 36.1054 100.887 34.6843 100.887 33.2301C100.887 31.776 101.107 30.3549 101.548 28.9668C101.989 27.5788 102.705 26.345 103.696 25.2654C104.688 24.1638 105.954 23.5689 107.497 23.4808ZM122.336 33.0979C122.336 33.7148 122.115 34.2326 121.675 34.6512C121.256 35.0919 120.738 35.3122 120.121 35.3122H110.141C109.524 35.3122 108.995 35.1029 108.554 34.6843C108.136 34.2436 107.926 33.7148 107.926 33.0979C107.926 32.481 108.136 31.9522 108.554 31.5116C108.995 31.093 109.524 30.8837 110.141 30.8837H120.121C120.738 30.8837 121.256 31.104 121.675 31.5446C122.115 31.9633 122.336 32.481 122.336 33.0979Z" fill="white"/>
<path d="M147.089 25.695C147.089 26.3119 146.869 26.8297 146.428 27.2483C146.009 27.689 145.492 27.9093 144.875 27.9093H131.655C131.237 27.9313 130.884 28.0305 130.598 28.2067C130.333 28.3609 130.135 28.5482 130.003 28.7685C129.871 28.9668 129.805 29.1761 129.805 29.3965C129.805 29.6168 129.871 29.8371 130.003 30.0574C130.135 30.2557 130.333 30.443 130.598 30.6193C130.884 30.7735 131.237 30.8616 131.655 30.8837H141.041C142.583 30.9277 143.85 31.2913 144.842 31.9743C145.855 32.6352 146.571 33.4064 146.99 34.2877C147.431 35.1469 147.651 36.0282 147.651 36.9316C147.651 37.8129 147.431 38.6942 146.99 39.5755C146.549 40.4347 145.833 41.2059 144.842 41.8889C143.85 42.5499 142.583 42.8803 141.041 42.8803H140.843C140.711 42.9024 140.578 42.9134 140.446 42.9134H127.954C127.337 42.9134 126.808 42.7041 126.368 42.2855C125.949 41.8448 125.74 41.316 125.74 40.6991C125.74 40.0822 125.96 39.5645 126.401 39.1458C126.819 38.7052 127.337 38.4849 127.954 38.4849H141.239C141.658 38.5069 142 38.4298 142.264 38.2535C142.55 38.0773 142.76 37.879 142.892 37.6586C143.024 37.4163 143.09 37.1739 143.09 36.9316C143.09 36.7773 143.024 36.568 142.892 36.3036C142.76 36.0172 142.55 35.7859 142.264 35.6096C142 35.4334 141.658 35.3342 141.239 35.3122H131.854C130.311 35.2681 129.033 34.9156 128.02 34.2546C127.028 33.5937 126.312 32.8446 125.872 32.0073C125.453 31.1481 125.244 30.2778 125.244 29.3965C125.244 28.5372 125.464 27.689 125.905 26.8517C126.345 25.9925 127.062 25.2323 128.053 24.5714C129.044 23.9104 130.311 23.5579 131.854 23.5138H132.052C132.184 23.4918 132.316 23.4808 132.448 23.4808H144.875C145.492 23.4808 146.009 23.7011 146.428 24.1417C146.869 24.5603 147.089 25.0781 147.089 25.695Z" fill="white"/>
<path d="M158.359 22.5884C159.13 22.5884 159.879 22.7206 160.606 22.985C161.355 23.2494 162.071 23.635 162.754 24.1417C162.864 24.2519 162.985 24.3621 163.118 24.4722C163.228 24.3621 163.349 24.2519 163.481 24.1417C164.164 23.635 164.869 23.2494 165.596 22.985C166.345 22.7206 167.095 22.5884 167.844 22.5884C168.615 22.5884 169.364 22.7206 170.091 22.985C170.84 23.2494 171.545 23.646 172.206 24.1748C172.889 24.6815 173.484 25.3645 173.991 26.2238C174.519 27.0831 174.784 28.1076 174.784 29.2973V41.2279C174.652 42.5499 173.925 43.2659 172.603 43.3761C171.986 43.3761 171.446 43.1778 170.983 42.7812C170.543 42.3626 170.322 41.8448 170.322 41.2279V29.5617C170.322 29.0329 170.223 28.5923 170.025 28.2398C169.827 27.8652 169.606 27.5788 169.364 27.3805C169.122 27.1602 168.868 27.0059 168.604 26.9178C168.339 26.8077 168.075 26.7526 167.811 26.7526C167.546 26.7526 167.282 26.8077 167.017 26.9178C166.775 27.0059 166.533 27.1602 166.29 27.3805C166.048 27.5788 165.828 27.8652 165.629 28.2398C165.431 28.5923 165.321 29.0329 165.299 29.5617V41.2279C165.167 42.5499 164.44 43.2659 163.118 43.3761C162.501 43.3761 161.961 43.1778 161.498 42.7812C161.058 42.3626 160.837 41.8448 160.837 41.2279V29.5617C160.837 29.0329 160.738 28.5923 160.54 28.2398C160.342 27.8652 160.121 27.5788 159.879 27.3805C159.637 27.1602 159.383 27.0059 159.119 26.9178C158.854 26.8077 158.59 26.7526 158.326 26.7526C158.061 26.7526 157.797 26.8077 157.532 26.9178C157.29 27.0059 157.048 27.1602 156.805 27.3805C156.563 27.5788 156.343 27.8652 156.144 28.2398C155.946 28.5923 155.836 29.0329 155.814 29.5617V41.2279C155.704 42.5499 154.988 43.2659 153.666 43.3761C153.049 43.3761 152.509 43.1778 152.046 42.7812C151.606 42.3626 151.385 41.8448 151.385 41.2279V29.2973C151.429 28.1076 151.705 27.0831 152.212 26.2238C152.718 25.3645 153.313 24.6815 153.996 24.1748C154.679 23.646 155.384 23.2494 156.111 22.985C156.86 22.7206 157.61 22.5884 158.359 22.5884Z" fill="white"/>
<path d="M185.095 23.4808H186.615H197.852C198.469 23.5028 198.975 23.7341 199.372 24.1748C199.791 24.6154 200 25.1442 200 25.7611C199.89 27.0831 199.174 27.7991 197.852 27.9093H186.219C185.381 27.9533 184.687 28.2728 184.137 28.8677C183.586 29.4626 183.178 30.1456 182.914 30.9167C182.671 31.6658 182.55 32.437 182.55 33.2301C182.55 34.0233 182.671 34.8054 182.914 35.5766C183.178 36.3257 183.586 36.9977 184.137 37.5925C184.687 38.1874 185.381 38.5069 186.219 38.551H197.852C198.469 38.573 198.975 38.8043 199.372 39.245C199.791 39.6856 200 40.2144 200 40.8313C199.978 41.4262 199.758 41.9329 199.339 42.3516C198.942 42.7481 198.447 42.9575 197.852 42.9795H185.723H185.095C183.553 42.8914 182.275 42.3075 181.261 41.2279C180.27 40.1263 179.554 38.8814 179.113 37.4934C178.695 36.1054 178.485 34.6843 178.485 33.2301C178.485 31.776 178.706 30.3549 179.146 28.9668C179.587 27.5788 180.303 26.345 181.294 25.2654C182.286 24.1638 183.553 23.5689 185.095 23.4808ZM199.934 33.0979C199.934 33.7148 199.714 34.2326 199.273 34.6512C198.854 35.0919 198.337 35.3122 197.72 35.3122H187.739C187.122 35.3122 186.593 35.1029 186.153 34.6843C185.734 34.2436 185.525 33.7148 185.525 33.0979C185.525 32.481 185.734 31.9522 186.153 31.5116C186.593 31.093 187.122 30.8837 187.739 30.8837H197.72C198.337 30.8837 198.854 31.104 199.273 31.5446C199.714 31.9633 199.934 32.481 199.934 33.0979Z" fill="white"/>
<defs>
<linearGradient id="paint0_linear_30_728" x1="11.675" y1="27.9784" x2="32.7442" y2="54.3286" gradientUnits="userSpaceOnUse">
<stop stop-color="#2BEEF4"/>
<stop offset="0.526042" stop-color="#607EEE"/>
<stop offset="1" stop-color="#8F4BDE"/>
</linearGradient>
<linearGradient id="paint1_linear_30_728" x1="2.89964" y1="14.4297" x2="51.8402" y2="54.1653" gradientUnits="userSpaceOnUse">
<stop stop-color="#2BEEF4"/>
<stop offset="0.526042" stop-color="#607EEE"/>
<stop offset="1" stop-color="#8F4BDE"/>
</linearGradient>
</defs>
</svg>
