<svg width="28" height="25" viewBox="0 0 28 25" fill="none" xmlns="http://www.w3.org/2000/svg">
<path d="M24.7673 11.7432C24.7665 11.2471 24.602 10.7623 24.2946 10.3501C23.9872 9.93788 23.5506 9.61674 23.0401 9.42723C22.5296 9.23773 21.9679 9.18836 21.4262 9.28536C20.8844 9.38237 20.3868 9.62139 19.9963 9.97225C18.433 9.06625 16.4366 8.48925 14.2443 8.39925C14.2438 7.98838 14.3465 7.58271 14.5447 7.21239C14.7429 6.84207 15.0314 6.51662 15.3889 6.26025C15.7457 6.00202 16.1628 5.81944 16.6091 5.72611C17.0554 5.63279 17.5194 5.63112 17.9665 5.72125L18.0912 5.74625C18.0912 5.77425 18.0867 5.80225 18.0867 5.83025C18.0855 6.33478 18.2871 6.82275 18.6544 7.2045C19.0217 7.58626 19.53 7.83614 20.086 7.90824C20.642 7.98035 21.2083 7.86982 21.6808 7.59698C22.1534 7.32413 22.5004 6.9073 22.6581 6.42307C22.8159 5.93884 22.7738 5.41975 22.5395 4.96117C22.3053 4.50259 21.8946 4.13534 21.3831 3.9269C20.8715 3.71846 20.2933 3.68283 19.7549 3.82655C19.2164 3.97028 18.7537 4.28371 18.4519 4.70925L18.2281 4.66425C17.6047 4.53852 16.9576 4.54085 16.3353 4.67106C15.713 4.80127 15.1314 5.056 14.634 5.41625C14.1355 5.77381 13.7332 6.22769 13.457 6.74413C13.1808 7.26058 13.0377 7.8263 13.0384 8.39925C10.845 8.48925 8.84971 9.06625 7.28756 9.97125C7.0035 9.71372 6.66071 9.51451 6.28275 9.38732C5.90479 9.26013 5.50064 9.20797 5.0981 9.23444C4.69556 9.26091 4.30418 9.36537 3.95088 9.54064C3.59758 9.71592 3.29074 9.95784 3.05147 10.2498C2.8122 10.5417 2.64617 10.8767 2.56481 11.2318C2.48345 11.5868 2.48869 11.9535 2.58016 12.3066C2.67164 12.6597 2.84718 12.9907 3.09471 13.2771C3.34224 13.5634 3.65588 13.7982 4.01408 13.9652C3.94616 14.2752 3.91053 14.5932 3.91053 14.9172C3.91053 18.5232 8.26627 21.4472 13.6419 21.4472C19.0153 21.4472 23.3722 18.5232 23.3722 14.9172C23.3722 14.5932 23.3366 14.2762 23.2686 13.9652C23.7205 13.7531 24.0991 13.4338 24.3633 13.0421C24.6275 12.6504 24.7672 12.2012 24.7673 11.7432ZM20.4194 4.81825C20.7122 4.82651 20.99 4.93681 21.1939 5.12579C21.3978 5.31477 21.5118 5.56759 21.5118 5.83075C21.5118 6.0939 21.3978 6.34673 21.1939 6.5357C20.99 6.72468 20.7122 6.83498 20.4194 6.84325C20.1265 6.83498 19.8487 6.72468 19.6448 6.5357C19.4409 6.34673 19.3269 6.0939 19.3269 5.83075C19.3269 5.56759 19.4409 5.31477 19.6448 5.12579C19.8487 4.93681 20.1265 4.82651 20.4194 4.81825ZM3.72013 11.7442C3.72013 10.9572 4.43273 10.3172 5.309 10.3172C5.68422 10.3172 6.02827 10.4352 6.29995 10.6312C5.4504 11.2862 4.79236 12.0562 4.38374 12.9012C4.17864 12.7697 4.01144 12.5961 3.89603 12.3949C3.78061 12.1937 3.72031 11.9706 3.72013 11.7442ZM19.8003 18.6672C18.1691 19.7622 15.9812 20.3652 13.6408 20.3652C11.3004 20.3652 9.11248 19.7622 7.48241 18.6672C5.95701 17.6442 5.11637 16.3122 5.11637 14.9172C5.11637 13.5232 5.9559 12.1922 7.48241 11.1672C9.11248 10.0732 11.2993 9.47125 13.6408 9.47125C15.9823 9.47125 18.1691 10.0732 19.8003 11.1682C21.3257 12.1922 22.1663 13.5232 22.1663 14.9182C22.1663 16.3122 21.3257 17.6442 19.8003 18.6682V18.6672ZM22.8979 12.9002C22.4892 12.0552 21.8312 11.2862 20.9816 10.6312C21.2533 10.4352 21.5985 10.3172 21.9726 10.3172C22.8489 10.3172 23.5615 10.9572 23.5615 11.7442C23.5615 12.2202 23.2998 12.6422 22.8979 12.9002Z" fill="white"/>
<path d="M10.0867 14.5353C10.7896 14.5353 11.3594 14.0235 11.3594 13.3923C11.3594 12.761 10.7896 12.2493 10.0867 12.2493C9.38384 12.2493 8.81406 12.761 8.81406 13.3923C8.81406 14.0235 9.38384 14.5353 10.0867 14.5353Z" fill="white"/>
<path d="M17.1949 14.5353C17.8977 14.5353 18.4675 14.0235 18.4675 13.3923C18.4675 12.761 17.8977 12.2493 17.1949 12.2493C16.492 12.2493 15.9222 12.761 15.9222 13.3923C15.9222 14.0235 16.492 14.5353 17.1949 14.5353Z" fill="white"/>
<path d="M16.656 16.1693C15.7612 16.9023 14.5936 17.3082 13.3825 17.3073C12.7146 17.3098 12.0535 17.1875 11.441 16.9482C10.8286 16.7089 10.2783 16.3579 9.82507 15.9173C9.71611 15.8121 9.56509 15.7501 9.40525 15.745C9.2454 15.7398 9.08983 15.7919 8.97274 15.8898C8.85565 15.9876 8.78665 16.1233 8.78091 16.2668C8.77516 16.4104 8.83315 16.5501 8.94212 16.6553C9.51083 17.2018 10.1983 17.6377 10.9621 17.9361C11.7258 18.2346 12.5496 18.3891 13.3825 18.3903C14.8944 18.3915 16.352 17.8846 17.4688 16.9693C17.5273 16.9213 17.5747 16.8635 17.6083 16.7991C17.6419 16.7348 17.661 16.6651 17.6647 16.594C17.6683 16.523 17.6563 16.452 17.6294 16.3851C17.6024 16.3183 17.5611 16.2568 17.5077 16.2043C17.4544 16.1517 17.39 16.1092 17.3183 16.079C17.2466 16.0488 17.169 16.0316 17.0899 16.0283C17.0108 16.0251 16.9318 16.0359 16.8573 16.06C16.7829 16.0842 16.7145 16.1213 16.656 16.1693Z" fill="white"/>
</svg>
