<svg width="27" height="25" viewBox="0 0 27 25" fill="none" xmlns="http://www.w3.org/2000/svg">
<path d="M24.4164 6.64873C24.2551 6.55068 24.042 6.55564 23.8869 6.6615C23.7298 6.76834 23.4748 6.86021 23.185 6.93557C23.9785 6.1035 23.995 5.54725 23.9856 5.41631C23.975 5.26783 23.8751 5.13631 23.7253 5.07291C23.5749 5.00994 23.3987 5.02486 23.2648 5.11217C22.3126 5.73357 21.3647 5.86893 20.7948 5.88404C19.9103 5.1285 18.7635 4.71436 17.5441 4.71436C14.9227 4.71436 12.79 6.65514 12.79 9.04057C12.79 9.23369 12.8042 9.42642 12.8321 9.61756C8.35701 9.54916 4.72484 5.70189 4.68735 5.66143C4.59236 5.5592 4.44813 5.50357 4.29899 5.51635C4.1512 5.52791 4.01872 5.60365 3.94461 5.71904C2.68308 7.68475 3.45374 9.41924 4.22753 10.4584C4.14764 10.4157 4.08218 10.3765 4.03738 10.3468C3.90068 10.2555 3.71827 10.2403 3.56539 10.3079C3.41225 10.3757 3.31439 10.5144 3.31152 10.6676C3.27733 12.5526 4.25811 13.6555 5.21105 14.2805C5.10788 14.2933 5.01111 14.3375 4.93852 14.4085C4.82935 14.5149 4.79095 14.6654 4.83801 14.8039C5.49884 16.7467 7.10145 17.4348 8.15973 17.6784C6.01898 19.1291 2.91629 18.6556 2.88189 18.6497C2.67617 18.6173 2.47027 18.7147 2.38572 18.8873C2.30138 19.0597 2.3591 19.2618 2.52598 19.376C4.80782 20.9401 7.53686 21.2867 9.50798 21.2867C10.9986 21.2867 12.0555 21.0883 12.1572 21.0686C22.1005 18.9522 22.4157 10.7927 22.3952 9.40221C24.2606 7.84248 24.5539 7.24381 24.5997 7.0949C24.6512 6.92639 24.5775 6.74701 24.4164 6.64873ZM21.6271 8.92834C21.5258 9.01205 21.4723 9.13283 21.4816 9.25639C21.4832 9.2783 21.6354 11.4899 20.5381 13.9543C19.072 17.2469 16.1816 19.3732 11.9565 20.2725C11.9112 20.281 8.00276 21.0081 4.5717 19.5424C6.03851 19.4872 8.06983 19.1162 9.49915 17.675C9.61854 17.5548 9.64694 17.369 9.57348 17.2222C9.50002 17.0757 9.33692 16.9679 9.15807 16.9679C9.1572 16.9679 9.15629 16.9679 9.15499 16.9679C9.03494 16.9679 6.96566 16.9539 5.97418 15.159C6.37515 15.1746 6.85449 15.1534 7.2408 14.9935C7.41877 14.9198 7.52394 14.7553 7.50198 14.5805C7.48001 14.4057 7.33579 14.2649 7.14403 14.2286C7.03286 14.2075 4.63668 13.7272 4.26724 11.389C4.63537 11.5268 5.09427 11.6335 5.55073 11.5721C5.72605 11.5485 5.86963 11.4353 5.91929 11.2825C5.96879 11.1298 5.91464 10.9649 5.78081 10.8603C5.67717 10.7794 3.41795 8.97459 4.45248 6.64256C5.67717 7.78834 9.16977 10.6413 13.4049 10.4233C13.54 10.4163 13.6647 10.3553 13.745 10.2572C13.8251 10.1592 13.8524 10.0342 13.8193 9.91631C13.7394 9.63053 13.6989 9.33596 13.6989 9.04061C13.6989 7.10521 15.4237 5.53072 17.5441 5.53072C18.581 5.53072 19.5536 5.9024 20.2829 6.57744C20.3665 6.65498 20.481 6.69939 20.6013 6.70143C21.0214 6.70502 21.713 6.66436 22.4946 6.40326C22.2615 6.64838 21.9356 6.93537 21.4798 7.25686C21.3223 7.36807 21.2644 7.559 21.3374 7.72662C21.4106 7.89463 21.6007 8.00084 21.7969 7.98471C21.8888 7.97814 22.3341 7.94287 22.8561 7.84779C22.557 8.13334 22.1582 8.48971 21.6271 8.92834Z" fill="white"/>
</svg>
